<svg width="34" height="21" fill="none" xmlns="http://www.w3.org/2000/svg"><path d="M1.889 8.312h26.283l-5.373-5.49a1.684 1.684 0 0 1-.458-1.173c.005-.437.177-.855.48-1.163a1.619 1.619 0 0 1 1.143-.487c.429-.003.841.166 1.15.47l8.156 8.333c.305.312.476.735.476 1.176 0 .44-.171.863-.476 1.176l-8.158 8.376a1.62 1.62 0 0 1-1.155.492 1.619 1.619 0 0 1-1.158-.484 1.683 1.683 0 0 1-.482-1.177c-.002-.443.17-.867.475-1.18l5.394-5.536H1.89c-.434 0-.85-.175-1.156-.488A1.683 1.683 0 0 1 .254 9.98c0-.442.172-.866.479-1.179a1.619 1.619 0 0 1 1.156-.488Z" fill="#339BEB"/></svg>