<svg width="34" height="21" fill="none" xmlns="http://www.w3.org/2000/svg"><path d="M32.111 8.312H5.828l5.373-5.49c.298-.315.462-.736.458-1.173a1.683 1.683 0 0 0-.48-1.163 1.619 1.619 0 0 0-1.143-.487 1.618 1.618 0 0 0-1.15.47L.73 8.802a1.683 1.683 0 0 0-.476 1.176c0 .44.171.863.476 1.176l8.158 8.376c.306.314.721.49 1.155.492.434.002.85-.173 1.158-.484.307-.312.48-.735.482-1.177a1.683 1.683 0 0 0-.475-1.18l-5.394-5.536H32.11c.434 0 .85-.175 1.156-.488.307-.313.479-.736.479-1.178 0-.442-.172-.866-.479-1.179a1.619 1.619 0 0 0-1.156-.488Z" fill="#607D8B"/></svg>