<svg width="25" height="25" viewBox="0 0 25 25" fill="none" xmlns="http://www.w3.org/2000/svg">
<path d="M1.77194 18.3694C2.49334 18.3693 3.19708 18.3776 3.88717 18.3631C3.95476 18.2024 4.01335 18.0654 4.06969 17.9273C4.10517 17.8402 4.1384 17.752 4.17018 17.6633C4.26601 17.397 4.35607 17.1281 4.45688 16.864C4.5556 16.6055 4.66652 16.3523 4.76781 16.0949C4.79623 16.0226 4.80217 15.9444 4.86959 15.8895C4.93588 15.8354 4.99849 15.8027 5.08581 15.803C6.10242 15.8066 7.11902 15.8061 8.13563 15.8061C9.5696 15.8063 11.0036 15.808 12.4374 15.8035C12.6117 15.803 12.7345 15.8631 12.8032 16.035C12.8483 16.1478 12.8905 16.2618 12.9337 16.3754C13.0085 16.5724 13.083 16.7696 13.1578 16.9667C13.2243 17.1418 13.2907 17.3167 13.3578 17.4917C13.405 17.6147 13.4532 17.7373 13.5009 17.8602C13.5349 17.9477 13.5773 18.0326 13.6015 18.1229C13.6448 18.2849 13.7074 18.4353 13.7803 18.5851C13.854 18.7364 13.7131 18.9732 13.5529 18.9922C13.484 19.0004 13.414 18.9994 13.3445 18.9995C12.4777 18.9997 11.611 18.9995 10.7442 18.999C10.696 18.999 10.6478 18.994 10.5998 18.9961C10.492 19.0006 10.4266 18.923 10.3907 18.839C10.3172 18.6678 10.2663 18.4858 10.2016 18.3102C10.1578 18.1914 10.1045 18.0767 10.0587 17.9586C10.0186 17.8551 9.9852 17.7484 9.9449 17.6449C9.89305 17.5113 9.8343 17.3807 9.78438 17.2464C9.74778 17.1478 9.72482 17.0433 9.68774 16.9451C9.63525 16.8061 9.59416 16.6628 9.52016 16.5317C9.47922 16.4595 9.43379 16.4408 9.36573 16.4408C9.24807 16.441 9.13024 16.4384 9.01257 16.4384C7.84074 16.4388 6.66907 16.4393 5.49724 16.4401C5.4128 16.4401 5.32371 16.4271 5.26175 16.5113C5.23976 16.5411 5.21552 16.5711 5.20171 16.6053C5.12001 16.8097 5.0399 17.0148 4.96189 17.2207C4.92465 17.3188 4.89559 17.4203 4.85883 17.5185C4.77905 17.7311 4.69317 17.9413 4.61612 18.1551C4.54645 18.3479 4.48224 18.5428 4.42108 18.7388C4.38031 18.8694 4.24868 18.9884 4.11913 18.9976C4.09249 18.9995 4.06568 18.9997 4.03887 18.9997C3.12404 18.9963 2.20921 18.9935 1.29438 18.9875C1.22391 18.987 1.1491 19.0035 1.08746 18.9302C0.995801 18.8212 0.971561 18.6142 1.03689 18.4704C1.09388 18.3451 1.13883 18.2137 1.18795 18.0846C1.2154 18.0124 1.239 17.9384 1.26757 17.8667C1.34286 17.6772 1.42392 17.4903 1.49503 17.2991C1.57048 17.0964 1.63485 16.8891 1.70853 16.6856C1.74433 16.5868 1.79136 16.4927 1.83101 16.3955C1.8705 16.2986 1.9079 16.2008 1.94514 16.1029C2.03006 15.8799 2.11707 15.6579 2.19797 15.4331C2.26555 15.2453 2.32061 15.0523 2.39028 14.8655C2.45995 14.6784 2.54406 14.4976 2.61598 14.3114C2.6834 14.1365 2.74119 13.9573 2.807 13.7816C2.85532 13.6522 2.91167 13.5261 2.96063 13.397C3.02564 13.2258 3.08599 13.0528 3.15037 12.8814C3.22421 12.6849 3.30158 12.49 3.37494 12.2933C3.41973 12.1733 3.46018 12.0514 3.50272 11.9304C3.53948 11.8255 3.57431 11.7198 3.61364 11.6159C3.69182 11.4092 3.77112 11.2027 3.8525 10.9973C3.92763 10.8075 4.00725 10.6197 4.08285 10.43C4.11384 10.3525 4.13952 10.2726 4.16761 10.1937C4.26232 9.92799 4.3527 9.66028 4.45286 9.39701C4.55319 9.13323 4.66684 8.8751 4.76765 8.61149C4.83716 8.43005 4.89238 8.24244 4.95884 8.05963C5.00042 7.94528 5.05275 7.83539 5.09673 7.7219C5.13702 7.61817 5.17073 7.51136 5.21054 7.40746C5.28968 7.20153 5.37347 6.99766 5.45037 6.79072C5.49307 6.67586 5.51907 6.55381 5.56514 6.44084C5.61715 6.31382 5.67911 6.19075 5.74589 6.07161C5.76403 6.03926 5.81315 6.01735 5.85136 6.00965C5.9085 5.99818 5.96854 6.00212 6.02745 6.00212C6.94245 6.00195 7.85728 6.00178 8.77227 6.00246C8.99459 6.00263 9.09043 6.09061 9.14822 6.32512C9.1731 6.42611 9.21596 6.52232 9.25208 6.62006C9.33651 6.84909 9.41886 7.07914 9.50763 7.30629C9.5781 7.48654 9.66174 7.66114 9.73108 7.84207C9.80043 8.023 9.85678 8.20941 9.92323 8.39153C9.98969 8.57366 10.0622 8.75322 10.131 8.93433C10.1781 9.05877 10.2212 9.1851 10.27 9.30903C10.3427 9.49389 10.4205 9.67637 10.4926 9.86158C10.5364 9.97421 10.5718 10.0908 10.6143 10.2041C10.6608 10.3284 10.7138 10.4501 10.7594 10.5747C10.801 10.6882 10.8352 10.8047 10.8748 10.9191C10.9021 10.9977 10.9323 11.0754 10.9633 11.1524C11.0386 11.3403 11.1179 11.5266 11.1898 11.7159C11.233 11.8299 11.2591 11.9513 11.3036 12.0648C11.376 12.2493 11.4611 12.428 11.5328 12.6127C11.579 12.7313 11.601 12.8612 11.6526 12.9766C11.6969 13.0757 11.7319 13.1704 11.7275 13.2821C11.7206 13.46 11.6274 13.569 11.4622 13.58C11.4248 13.5826 11.3872 13.5815 11.3498 13.5815C9.8892 13.5812 8.42842 13.5808 6.96781 13.5803C6.70021 13.5802 6.43246 13.5707 6.16534 13.582C5.9878 13.5896 5.90963 13.4713 5.83771 13.3366C5.82182 13.3066 5.82407 13.2573 5.8337 13.2217C5.85714 13.1354 5.88603 13.0504 5.91958 12.9679C5.99246 12.7886 6.07545 12.6141 6.14319 12.4326C6.21479 12.2405 6.27225 12.0427 6.33807 11.8482C6.36456 11.7703 6.39634 11.6943 6.42684 11.6182C6.50309 11.4282 6.58287 11.2397 6.65575 11.0482C6.72477 10.8667 6.78497 10.6817 6.85223 10.4995C6.93859 10.2657 7.02207 10.0302 7.12015 9.80184C7.15016 9.73183 7.20795 9.66969 7.30379 9.66353C7.54666 9.64778 7.6136 9.69691 7.69884 9.94596C7.76674 10.1444 7.85439 10.335 7.92742 10.5317C7.99661 10.7183 8.05553 10.9092 8.12391 11.0963C8.18876 11.2739 8.26035 11.4487 8.32778 11.6254C8.37497 11.7491 8.41863 11.8746 8.46695 11.9978C8.50933 12.1062 8.55749 12.2118 8.60051 12.3198C8.64128 12.4223 8.67933 12.5261 8.71769 12.6296C8.75638 12.7339 8.79394 12.8385 8.83343 12.9463C8.90101 12.9511 8.95912 12.9585 9.01739 12.9586C9.58982 12.9591 10.1624 12.9583 10.7348 12.9578C10.7617 12.9578 10.7885 12.9578 10.8151 12.9561C10.9602 12.9465 10.9739 12.9133 10.9156 12.7643C10.8671 12.6408 10.8318 12.5113 10.7893 12.3852C10.7626 12.3065 10.7342 12.2284 10.7048 12.1507C10.6186 11.9223 10.5308 11.6947 10.4449 11.4662C10.3611 11.2433 10.2791 11.0197 10.1956 10.7967C10.1064 10.5584 10.0163 10.3207 9.9266 10.0827C9.84297 9.86072 9.7595 9.63836 9.67586 9.41635C9.58806 9.18338 9.50282 8.94939 9.41148 8.71796C9.31211 8.46582 9.2028 8.21813 9.10568 7.96497C9.03232 7.7736 8.97405 7.57555 8.90358 7.38281C8.86377 7.27377 8.80999 7.17072 8.76825 7.06237C8.72443 6.94854 8.68366 6.833 8.64915 6.71574C8.62972 6.64984 8.59216 6.62348 8.53341 6.61937C8.50146 6.61715 8.4692 6.61595 8.43725 6.61595C7.72565 6.61578 7.01404 6.6156 6.30243 6.61612C6.26005 6.61612 6.21767 6.6216 6.15314 6.62622C6.12104 6.71386 6.08701 6.80646 6.05314 6.89907C6.02087 6.98722 5.99085 7.07641 5.95554 7.16319C5.88057 7.34754 5.79694 7.52813 5.72791 7.71488C5.65712 7.90608 5.60142 8.10345 5.5356 8.29687C5.50559 8.3852 5.46658 8.4701 5.43271 8.55689C5.38246 8.68595 5.33334 8.81553 5.2831 8.9446C5.21552 9.11834 5.14633 9.2914 5.07987 9.46565C5.03075 9.59454 4.985 9.72498 4.93733 9.85439C4.89896 9.95863 4.85963 10.0625 4.82143 10.1669C4.77231 10.3015 4.72479 10.4367 4.67487 10.5711C4.64421 10.6538 4.61114 10.7354 4.57807 10.8169C4.50343 11.0007 4.42333 11.1822 4.35446 11.3684C4.28351 11.5601 4.2246 11.7566 4.15814 11.9502C4.12941 12.0339 4.09473 12.1153 4.06311 12.1979C3.95235 12.4881 3.84335 12.7789 3.73098 13.0682C3.62664 13.3367 3.51556 13.6024 3.41314 13.8718C3.34219 14.0581 3.28296 14.2494 3.21425 14.4367C3.17605 14.5406 3.12773 14.6402 3.08664 14.7431C3.04988 14.8352 3.01601 14.9288 2.98246 15.0223C2.88887 15.2832 2.79994 15.5463 2.7017 15.8052C2.6033 16.0646 2.4951 16.3195 2.39301 16.5771C2.35657 16.669 2.33554 16.7652 2.29188 16.8573C2.21194 17.0259 2.16843 17.2137 2.1023 17.3903C2.0307 17.5815 1.93632 17.7643 1.87901 17.9598C1.84273 18.0846 1.74802 18.1945 1.77194 18.3694ZM13.0157 18.3412C12.9583 18.1876 12.914 18.0677 12.8684 17.9482C12.8409 17.8763 12.8085 17.8066 12.7838 17.7337C12.7427 17.6128 12.7099 17.4886 12.6664 17.3687C12.5892 17.1556 12.5135 16.9413 12.4236 16.734C12.3661 16.6015 12.3289 16.4401 12.1364 16.4415C11.5322 16.4461 10.9278 16.4413 10.3236 16.4441C10.1942 16.4446 10.1602 16.5199 10.2117 16.6481C10.2897 16.8422 10.3618 17.0389 10.4379 17.2339C10.4639 17.3003 10.4965 17.3638 10.5222 17.4304C10.5718 17.5589 10.6199 17.6882 10.6661 17.8181C10.7088 17.9381 10.7517 18.0584 10.7878 18.1808C10.8233 18.3011 10.895 18.3682 11.0158 18.3684C11.62 18.3691 12.2244 18.3687 12.8286 18.3667C12.8844 18.3667 12.9403 18.352 13.0157 18.3412ZM6.59683 12.9045C6.74291 12.9728 7.94524 12.9812 8.12567 12.9227C8.12279 12.8655 8.1329 12.7994 8.11396 12.7447C8.06002 12.588 7.99115 12.4383 7.94219 12.278C7.8844 12.0885 7.79114 11.9114 7.7165 11.7274C7.68134 11.6406 7.65245 11.5509 7.62243 11.4619C7.58695 11.3564 7.55854 11.2477 7.51761 11.1449C7.48839 11.0714 7.44344 11.005 7.39705 10.9199C7.34825 10.9858 7.29881 11.0321 7.27393 11.0903C7.20892 11.2423 7.15177 11.3984 7.09655 11.5548C7.03025 11.7433 6.97439 11.9362 6.90472 12.1231C6.80809 12.3821 6.70262 12.6373 6.59683 12.9045Z" fill="#005292"/>
<path d="M22.572 8.73707C22.5707 8.02362 22.5749 7.33584 22.5693 6.6342C22.4908 6.62821 22.4336 6.61982 22.3765 6.61982C21.0282 6.61948 19.6798 6.61948 18.3316 6.62102C18.177 6.62119 18.0213 6.61503 17.875 6.69017C17.8386 6.709 17.7915 6.70798 17.7492 6.70986C17.6374 6.71448 17.5315 6.72526 17.4251 6.78038C17.328 6.83071 17.214 6.83944 17.1084 6.88257C16.9064 6.96508 16.7165 7.06744 16.5383 7.19308C16.3014 7.36015 16.0967 7.56778 15.9251 7.80999C15.7896 8.00119 15.6755 8.20284 15.584 8.42605C15.4776 8.68555 15.4201 8.9483 15.4039 9.2268C15.401 9.27713 15.3787 9.32608 15.3747 9.37658C15.3659 9.48356 15.3522 9.59208 15.3606 9.69821C15.3731 9.85621 15.3885 10.0171 15.4291 10.1686C15.4765 10.3454 15.5129 10.525 15.5806 10.6986C15.6598 10.9014 15.7484 11.0976 15.8635 11.2749C16.0751 11.6013 16.3393 11.8721 16.672 12.0638C16.9016 12.196 17.1196 12.3512 17.3485 12.4848C17.4854 12.5645 17.6342 12.6207 17.7765 12.6903C17.9092 12.7554 18.0408 12.8232 18.172 12.8916C18.2709 12.9433 18.3672 13.0002 18.4664 13.0508C18.6399 13.1395 18.8133 13.2285 18.9895 13.311C19.1432 13.3829 19.3016 13.4426 19.4556 13.5138C19.6137 13.5871 19.7683 13.6691 19.9254 13.7451C20.0212 13.7913 20.1203 13.83 20.2155 13.8779C20.3741 13.9577 20.5274 14.0506 20.689 14.1227C20.9118 14.2222 21.0629 14.4058 21.2122 14.5943C21.2881 14.6902 21.3489 14.7927 21.3557 14.9243C21.3579 14.9687 21.377 15.0121 21.3871 15.0561C21.3947 15.089 21.4096 15.1236 21.4056 15.1551C21.3573 15.5411 21.2371 15.8879 20.9014 16.095C20.78 16.1698 20.6535 16.2497 20.5022 16.2418C20.4863 16.241 20.4691 16.2417 20.4545 16.2475C20.1121 16.3837 19.7559 16.3177 19.4056 16.3247C19.0314 16.3322 18.6569 16.3151 18.2826 16.3155C17.6675 16.316 17.0525 16.324 16.4374 16.3247C16.0308 16.325 15.6241 16.323 15.2179 16.3101C15.1201 16.3071 15.0215 16.2629 14.9278 16.2249C14.8928 16.2107 14.8602 16.1653 14.8443 16.126C14.7552 15.9046 14.8873 15.6662 15.1124 15.6374C15.1546 15.632 15.1979 15.635 15.2406 15.635C16.8191 15.6338 18.3974 15.633 19.9758 15.6314C20.0827 15.6313 20.1912 15.6135 20.2964 15.6272C20.432 15.6448 20.5405 15.5714 20.6332 15.502C20.7043 15.4488 20.7733 15.3459 20.7709 15.2288C20.7688 15.1253 20.7922 15.0236 20.6991 14.9319C20.5991 14.8334 20.5028 14.7449 20.3811 14.671C20.1668 14.5405 19.9342 14.4575 19.7174 14.336C19.562 14.2489 19.3878 14.2006 19.2255 14.1265C19.077 14.0587 18.9338 13.9774 18.7868 13.9057C18.6213 13.8249 18.4529 13.7506 18.2879 13.6689C18.1364 13.594 17.9874 13.513 17.8376 13.4341C17.7116 13.3677 17.5867 13.2989 17.4597 13.2345C17.3185 13.1629 17.1727 13.101 17.0342 13.0243C16.831 12.9118 16.6295 12.7951 16.4324 12.6708C16.0903 12.4553 15.7752 12.2025 15.5257 11.8682C15.389 11.6849 15.2789 11.4834 15.1708 11.2783C15.0806 11.107 15.0028 10.9276 14.9525 10.747C14.9071 10.5835 14.8204 10.4254 14.8332 10.241C14.8385 10.1655 14.8048 10.0871 14.7902 10.0097C14.7809 9.95994 14.7681 9.90961 14.7669 9.85929C14.7634 9.68828 14.7583 9.51677 14.766 9.34611C14.7705 9.24597 14.7995 9.1472 14.8154 9.04758C14.8244 8.99161 14.8318 8.93495 14.8352 8.87812C14.8417 8.77079 14.8474 8.66894 14.8989 8.56641C14.9496 8.46542 14.9507 8.34234 14.9952 8.23022C15.1162 7.92519 15.2601 7.63659 15.4577 7.38206C15.6567 7.12547 15.8832 6.89627 16.1369 6.70198C16.3162 6.56453 16.5045 6.44009 16.713 6.35484C16.8257 6.3088 16.9323 6.24512 17.0456 6.20164C17.1496 6.16176 17.258 6.12958 17.3668 6.10972C17.5866 6.06967 17.8078 6.01232 18.0288 6.01078C19.6339 6.00034 21.239 6.00188 22.8441 6C22.8868 6 22.93 6.00017 22.9723 6.00548C23.0624 6.0166 23.1393 6.09072 23.1529 6.18812C23.1648 6.27234 23.1711 6.35844 23.1712 6.44368C23.1727 7.29955 23.1723 8.15525 23.172 9.01112C23.172 9.0623 23.1703 9.11417 23.1634 9.16466C23.1455 9.29253 23.0773 9.36648 22.9548 9.38223C22.8755 9.3925 22.7946 9.3925 22.7145 9.3925C21.3181 9.39232 19.9216 9.3913 18.5251 9.39078C18.3762 9.39078 18.232 9.39832 18.0845 9.4495C17.9424 9.4988 17.8891 9.61074 17.8614 9.73039C17.837 9.83498 17.9002 9.94676 17.9832 10.0068C18.0993 10.0909 18.2309 10.1513 18.3577 10.2177C18.4372 10.2593 18.5199 10.2937 18.6014 10.3307C18.726 10.3874 18.8515 10.4421 18.9754 10.5003C19.0326 10.5272 19.0857 10.5637 19.1432 10.5897C19.4122 10.7116 19.6835 10.8281 19.9516 10.9527C20.1906 11.064 20.4258 11.1847 20.6638 11.2985C20.8584 11.3915 21.0533 11.4839 21.2507 11.5697C21.4201 11.6433 21.6005 11.6919 21.7629 11.779C22.1052 11.9625 22.4501 12.1472 22.7272 12.4385C22.9218 12.6431 23.1139 12.8514 23.2931 13.071C23.381 13.1787 23.4396 13.3143 23.507 13.4399C23.5772 13.5705 23.6528 13.6997 23.7064 13.8382C23.7637 13.9865 23.8108 14.1395 23.8535 14.2953C23.9827 14.7665 23.9387 15.2417 23.9212 15.7172C23.9177 15.8107 23.8851 15.9028 23.8663 15.9957C23.8584 16.0346 23.8472 16.0734 23.8456 16.1128C23.8421 16.1991 23.8257 16.2749 23.782 16.3538C23.7298 16.4481 23.712 16.5633 23.6746 16.6677C23.5937 16.8932 23.4716 17.0922 23.3422 17.2899C23.1911 17.521 23.0223 17.7317 22.8169 17.9063C22.6662 18.0344 22.5055 18.1494 22.3463 18.2656C22.2389 18.3439 22.1293 18.42 22.015 18.4861C21.9185 18.5419 21.8146 18.583 21.713 18.6282C21.6019 18.6777 21.49 18.7246 21.3782 18.772C21.3491 18.7843 21.3194 18.7949 21.2892 18.8035C21.2741 18.8077 21.2547 18.8004 21.2417 18.8074C21.0592 18.9065 20.8484 18.8803 20.6603 18.9575C20.6025 18.9811 20.5348 18.9835 20.4714 18.9847C20.0916 18.9918 19.7117 18.9991 19.3319 18.9996C17.9622 19.0015 16.5926 19.0007 15.2228 19.0007C15.1639 19.0007 15.1048 19.0024 15.0464 18.9965C14.9164 18.9839 14.8458 18.9127 14.8271 18.7747C14.8093 18.6424 14.8034 18.5108 14.9296 18.4276C14.9679 18.4022 15.0122 18.3778 15.0559 18.373C15.1353 18.3641 15.2161 18.3697 15.2964 18.3697C16.8533 18.3692 18.4102 18.3687 19.967 18.3678C20.0686 18.3678 20.1702 18.3646 20.2718 18.3615C20.3092 18.3603 20.3519 18.3665 20.3827 18.3497C20.5161 18.2766 20.6648 18.2949 20.802 18.2598C20.9359 18.2256 21.0833 18.2133 21.2008 18.1183C21.2091 18.1116 21.2188 18.1047 21.2285 18.1023C21.5472 18.0243 21.8153 17.8428 22.0872 17.6568C22.3911 17.4488 22.6317 17.179 22.8524 16.8853C22.9592 16.7434 23.0463 16.5828 23.0971 16.4038C23.1147 16.3416 23.1568 16.2874 23.1746 16.2251C23.2282 16.0371 23.2752 15.8471 23.3245 15.658C23.3289 15.6415 23.3335 15.6244 23.3335 15.6076C23.334 15.3055 23.3708 14.9964 23.3218 14.7035C23.2828 14.47 23.2138 14.2331 23.1154 14.0053C22.9423 13.6046 22.6898 13.2817 22.3972 12.9848C22.231 12.8161 22.0458 12.6758 21.8398 12.5655C21.6965 12.4889 21.5621 12.3923 21.4164 12.322C21.2542 12.2437 21.0825 12.1888 20.9176 12.1167C20.7534 12.045 20.593 11.9635 20.4303 11.888C20.2587 11.8086 20.0856 11.7328 19.9143 11.6527C19.7527 11.5772 19.5925 11.4981 19.4313 11.4211C19.3544 11.3844 19.2777 11.3473 19.1998 11.3132C18.9727 11.2136 18.7382 11.1299 18.5192 11.013C18.2336 10.8605 17.9229 10.7634 17.6593 10.5632C17.5055 10.4464 17.3981 10.2977 17.3243 10.1109C17.2759 9.98904 17.2324 9.87349 17.2454 9.73861C17.2793 9.38582 17.4031 9.0914 17.7116 8.91749C17.8949 8.81427 18.0851 8.74854 18.299 8.74922C19.6419 8.75316 20.9849 8.75059 22.3278 8.7494C22.4015 8.74888 22.4749 8.74203 22.572 8.73707Z" fill="#005292"/>
</svg>
