<svg width="193" height="34" fill="none" xmlns="http://www.w3.org/2000/svg"><path fill-rule="evenodd" clip-rule="evenodd" d="M56.177 7.173c.074-.005.152-.01.237-.014V5.207c.002-1.186.003-2.36-.006-3.548l-.189-.017a3.06 3.06 0 0 0-.316-.021 7580.759 7580.759 0 0 0-10.665.003c-.375 0-.752-.001-1.106.18a.68.68 0 0 1-.29.051l-.04.001c-.292.012-.568.04-.847.185a2.107 2.107 0 0 1-.454.153c-.125.032-.252.064-.374.114a7.483 7.483 0 0 0-1.491.812 6.69 6.69 0 0 0-1.604 1.613 8.061 8.061 0 0 0-.892 1.611 6.413 6.413 0 0 0-.47 2.095 1.128 1.128 0 0 1-.04.202 1.127 1.127 0 0 0-.037.19l-.013.148a4.118 4.118 0 0 0-.024.692c.033.414.073.834.18 1.23l.094.37c.086.341.172.683.302 1.016.207.53.439 1.044.74 1.508.553.853 1.243 1.562 2.114 2.063.308.177.608.371.909.564.284.184.569.367.86.537.228.133.469.24.71.348.137.062.274.123.409.19.347.17.691.346 1.034.526.12.062.237.127.355.192.138.076.276.152.415.224l.057.03c.435.221.87.444 1.311.65.205.096.414.184.622.271a16.566 16.566 0 0 1 1.314.61c.17.086.34.172.512.255.112.054.226.104.34.154.14.062.281.124.418.193.16.08.319.166.476.252.252.136.503.272.763.388.583.26.977.74 1.368 1.233.198.25.357.52.375.863.004.076.027.151.05.226.011.04.023.08.032.119l.02.071a.482.482 0 0 1 .029.188c-.127 1.01-.441 1.916-1.319 2.458l-.018.01c-.312.193-.637.394-1.026.374a.3.3 0 0 0-.125.015c-.658.261-1.335.238-2.011.214a13.786 13.786 0 0 0-.732-.013 44.58 44.58 0 0 1-1.719-.01 62.591 62.591 0 0 0-1.218-.014c-.804.001-1.608.007-2.412.012-.804.006-1.609.012-2.413.012a96.942 96.942 0 0 1-3.19-.038c-.231-.007-.465-.102-.689-.194a33.66 33.66 0 0 0-.069-.029c-.091-.037-.176-.155-.218-.258-.233-.579.113-1.203.701-1.278a1.67 1.67 0 0 1 .246-.007h.09l4.122-.002 8.26-.006c.102 0 .204-.007.306-.013.179-.01.358-.021.533.001.355.046.638-.146.88-.327a.908.908 0 0 0 .36-.714l.002-.146c.005-.22.01-.434-.189-.631-.261-.257-.513-.488-.832-.682-.307-.188-.63-.338-.952-.488a11.575 11.575 0 0 1-.783-.388 5.759 5.759 0 0 0-.77-.338 8.826 8.826 0 0 1-.517-.21c-.227-.104-.45-.22-.672-.335a20.407 20.407 0 0 0-.475-.243c-.2-.098-.403-.192-.605-.286a31.663 31.663 0 0 1-.7-.333c-.296-.146-.588-.302-.881-.457l-.296-.157-.371-.197c-.205-.11-.41-.22-.617-.325-.146-.074-.294-.144-.441-.214a12.053 12.053 0 0 1-.672-.335c-.532-.295-1.059-.6-1.574-.925-.894-.564-1.719-1.225-2.371-2.099-.358-.48-.646-1.006-.928-1.543a7.15 7.15 0 0 1-.571-1.389 5.635 5.635 0 0 0-.119-.362c-.107-.305-.217-.616-.193-.961.01-.132-.027-.268-.064-.404a2.69 2.69 0 0 1-.065-.284 1.767 1.767 0 0 1-.044-.31L36 9.943a17.902 17.902 0 0 1 .001-1.192c.008-.17.043-.339.077-.508a4.5 4.5 0 0 0 .104-.717v-.01c.018-.277.034-.54.167-.804.072-.144.106-.304.14-.468.029-.138.058-.278.112-.412.316-.797.692-1.552 1.209-2.218a9.799 9.799 0 0 1 1.776-1.778c.469-.36.961-.685 1.507-.908.137-.056.27-.122.403-.188.154-.076.308-.152.467-.213.272-.104.555-.188.84-.24.132-.024.266-.051.399-.078.443-.089.888-.178 1.332-.18 3.25-.022 6.5-.024 9.749-.027.948 0 1.896 0 2.843-.002.113 0 .225 0 .336.014.235.03.436.223.472.478.031.22.047.445.048.668.004 2.239.003 4.476.002 6.714 0 .134-.004.27-.023.402-.046.334-.225.528-.545.569-.207.027-.419.027-.628.027l-6.849-.003-4.107-.002c-.39 0-.767.02-1.153.154-.371.13-.51.422-.583.734-.064.274.102.566.319.723.239.174.503.308.766.443.071.036.143.072.213.109.153.08.311.15.469.22l.168.075.34.154c.214.095.427.19.638.29.072.034.142.073.212.113.075.043.15.085.227.12.278.127.557.25.836.374.427.19.854.379 1.278.576.358.167.713.341 1.067.516.265.13.53.261.796.388a48.41 48.41 0 0 0 1.535.71c.174.075.353.141.532.207.275.1.55.202.807.34l.005.003c.893.479 1.794.961 2.517 1.722.509.535 1.01 1.08 1.48 1.654.173.212.303.467.432.72.042.082.084.164.127.244l.104.191c.151.278.303.556.418.851.15.388.272.788.384 1.195.293 1.069.246 2.145.198 3.223-.007.165-.015.33-.02.496-.007.166-.048.33-.09.494a6.577 6.577 0 0 0-.054.234l-.017.078c-.017.076-.034.152-.038.228-.01.226-.051.424-.166.63a2.404 2.404 0 0 0-.188.52c-.029.101-.057.203-.093.302-.21.59-.53 1.11-.869 1.627-.395.604-.837 1.155-1.373 1.612-.353.3-.727.572-1.1.843l-.131.096a9.882 9.882 0 0 1-.867.577c-.196.114-.405.204-.613.294l-.176.077c-.274.122-.55.238-.824.355l-.052.021c-.076.032-.154.06-.233.083a.179.179 0 0 1-.057.003c-.024-.002-.048-.003-.067.007-.262.142-.546.186-.83.23-.234.036-.468.072-.69.163-.152.062-.329.068-.495.07l-.142.003c-.946.018-1.891.035-2.837.037-2.73.004-5.46.003-8.19.003h-2.638c-.126 0-.254 0-.38-.011-.34-.033-.524-.22-.573-.58-.047-.346-.062-.69.268-.908.1-.066.216-.13.33-.143.15-.017.301-.014.453-.01l.176.002h.04l12.174-.005c.253 0 .505-.008.758-.016l.04-.001h.073a.441.441 0 0 0 .217-.03c.22-.121.455-.147.69-.172.137-.015.273-.03.406-.064.076-.02.154-.036.232-.053.282-.06.57-.123.811-.317a.19.19 0 0 1 .073-.042c.833-.204 1.534-.678 2.245-1.165.795-.544 1.424-1.25 2.001-2.018.279-.37.507-.79.64-1.259.023-.081.062-.158.102-.234.039-.076.078-.152.1-.233.106-.369.202-.741.297-1.113l.096-.37.003-.012c.01-.04.02-.08.02-.12 0-.236.01-.474.018-.711.02-.558.041-1.116-.048-1.653a7.913 7.913 0 0 0-.54-1.826c-.453-1.048-1.113-1.892-1.878-2.669A6.04 6.04 0 0 0 54.5 17.17a9.71 9.71 0 0 1-.477-.28 7.343 7.343 0 0 0-.63-.357 10.035 10.035 0 0 0-.752-.314c-.185-.072-.37-.143-.552-.223a24.48 24.48 0 0 1-.779-.363c-.165-.079-.33-.158-.496-.235a74.38 74.38 0 0 0-.624-.284c-.243-.11-.485-.22-.725-.332-.272-.126-.541-.257-.811-.387a117.133 117.133 0 0 0-.537-.258 17.396 17.396 0 0 0-.52-.242c-.193-.085-.387-.164-.582-.244-.406-.168-.811-.335-1.199-.541-.26-.14-.53-.261-.799-.383-.5-.227-1.001-.453-1.45-.794a2.661 2.661 0 0 1-.876-1.182c-.126-.32-.24-.622-.206-.974.089-.923.413-1.693 1.22-2.147.479-.27.977-.442 1.535-.44a2173.356 2173.356 0 0 0 10.536 0c.128 0 .255-.008.401-.017Z" fill="#005292"/><path d="M2.019 32.348c1.886 0 3.727.021 5.531-.017.177-.42.33-.778.478-1.14.092-.227.18-.458.262-.69.251-.696.487-1.4.75-2.09.258-.676.548-1.338.813-2.012.075-.188.09-.393.267-.537.173-.141.337-.227.565-.226 2.659.01 5.317.008 7.976.008 3.75 0 7.5.005 11.25-.006.455-.002.776.155.956.605.118.295.228.593.341.89l.586 1.546.523 1.373.374.964c.09.229.2.45.264.687.113.424.277.817.467 1.209.193.396-.176 1.015-.595 1.064-.18.022-.363.02-.544.02-2.267 0-4.534 0-6.8-.002-.127 0-.253-.013-.378-.007-.282.011-.453-.192-.547-.411-.192-.448-.325-.924-.495-1.383-.114-.31-.254-.61-.373-.92-.105-.27-.193-.55-.298-.82-.136-.35-.29-.69-.42-1.042-.095-.258-.155-.531-.252-.788-.138-.364-.245-.738-.439-1.081-.107-.189-.226-.238-.403-.238-.308 0-.616-.006-.924-.006-3.064 0-6.129.002-9.193.004-.22 0-.454-.034-.616.187-.057.078-.12.156-.157.245a92.396 92.396 0 0 0-.627 1.61c-.098.256-.174.522-.27.779-.208.556-.433 1.105-.634 1.664a35.03 35.03 0 0 0-.51 1.527c-.107.341-.451.653-.79.677-.07.005-.14.005-.21.005-2.392-.009-4.785-.016-7.177-.032-.184-.001-.38.042-.541-.15-.24-.285-.303-.826-.133-1.202.15-.328.267-.672.396-1.01.071-.188.133-.381.208-.569.197-.495.409-.984.595-1.484.197-.53.365-1.072.558-1.605.094-.258.217-.504.32-.758.103-.254.201-.51.299-.765.222-.584.45-1.164.66-1.752.178-.491.322-.996.504-1.484.182-.49.402-.962.59-1.45.176-.457.327-.926.5-1.385.126-.338.273-.668.401-1.006.17-.447.328-.9.497-1.348.193-.514.395-1.024.587-1.538.117-.314.223-.633.334-.95.096-.274.187-.55.29-.821.204-.541.412-1.081.625-1.618.196-.497.404-.988.602-1.484.081-.203.148-.412.222-.618.247-.695.484-1.395.746-2.083.262-.69.56-1.365.823-2.055.182-.474.326-.965.5-1.443.109-.299.245-.586.36-.883.106-.271.194-.55.298-.822.207-.539.426-1.072.627-1.613.112-.3.18-.62.3-.915.136-.332.298-.654.473-.966.048-.084.176-.142.276-.162.15-.03.306-.02.46-.02 2.393 0 4.786 0 7.179.002.581 0 .832.23.983.843.065.264.177.516.271.772.221.599.437 1.2.669 1.794.184.472.403.928.584 1.401.181.473.329.961.503 1.437.173.477.363.946.543 1.42.123.325.236.656.363.98.19.483.394.96.582 1.445.115.294.207.599.319.895.121.325.26.644.38.97.108.296.197.601.301.9.071.206.15.409.231.61.197.492.405.979.593 1.474.113.298.181.615.297.912.19.483.412.95.6 1.433.12.31.178.65.313.952.116.259.207.507.196.799-.018.465-.262.75-.694.779-.098.006-.196.004-.294.004l-11.46-.003c-.7 0-1.4-.025-2.098.004-.464.02-.669-.29-.857-.642-.041-.078-.035-.207-.01-.3.061-.226.137-.448.224-.664.191-.469.408-.925.585-1.4.187-.502.338-1.02.51-1.528.069-.204.152-.402.232-.602.2-.497.408-.99.599-1.49.18-.475.338-.959.513-1.435.226-.611.444-1.227.701-1.825.079-.183.23-.345.48-.361.635-.041.81.087 1.033.738.178.52.407 1.018.598 1.532.181.488.335.987.514 1.476.17.465.357.922.533 1.384.124.324.238.652.364.974.11.284.237.56.35.842.106.268.206.54.306.81.101.273.2.547.302.829.177.012.33.031.482.032 1.497.001 2.994-.001 4.49-.002.071 0 .141 0 .21-.005.38-.025.416-.112.264-.501-.127-.323-.22-.662-.33-.992-.07-.206-.145-.41-.222-.613-.225-.597-.455-1.193-.68-1.79-.218-.583-.433-1.168-.651-1.75-.233-.624-.47-1.246-.704-1.868l-.655-1.743c-.23-.609-.453-1.22-.692-1.826-.26-.66-.546-1.307-.8-1.97-.191-.5-.344-1.018-.528-1.522-.104-.285-.245-.554-.354-.838a11.79 11.79 0 0 1-.311-.906c-.051-.173-.15-.241-.303-.252a3.63 3.63 0 0 0-.252-.01l-5.582.001c-.111 0-.222.015-.39.027l-.262.713c-.085.23-.163.464-.256.691-.196.482-.414.954-.595 1.443-.185.5-.33 1.016-.503 1.522-.078.23-.18.453-.269.68L11.201 7.7c-.177.454-.358.907-.532 1.362-.128.337-.248.678-.372 1.017-.1.272-.204.544-.303.817-.129.352-.253.706-.384 1.057-.08.216-.166.43-.253.643-.195.48-.405.955-.585 1.442-.185.502-.34 1.016-.513 1.522-.075.219-.166.431-.249.648-.29.758-.574 1.519-.868 2.275-.273.703-.563 1.397-.831 2.102-.186.487-.34.988-.52 1.477-.1.272-.227.533-.334.802a22.2 22.2 0 0 0-.273.73c-.244.682-.477 1.37-.734 2.047-.257.678-.54 1.345-.807 2.019-.095.24-.15.491-.265.732-.209.441-.322.932-.495 1.394-.188.5-.434.978-.584 1.49-.095.326-.343.613-.28 1.07Zm29.404-.074c-.15-.402-.266-.715-.386-1.028-.071-.188-.156-.37-.22-.56-.108-.317-.194-.642-.308-.955-.202-.557-.4-1.118-.635-1.66-.15-.346-.247-.769-.75-.765-1.58.012-3.162 0-4.742.007-.338.001-.427.198-.292.533.204.508.392 1.022.591 1.532.068.174.154.34.22.514.13.336.256.674.377 1.014.112.314.224.629.319.949.092.314.28.49.596.49 1.58.002 3.16.001 4.74-.004.146 0 .293-.039.49-.067ZM14.636 18.056c.383.179 3.527.2 3.999.048-.008-.15.018-.322-.031-.466-.141-.41-.321-.801-.45-1.22-.15-.495-.394-.959-.59-1.44-.091-.227-.167-.462-.245-.694-.093-.276-.168-.56-.275-.83-.076-.191-.194-.365-.315-.588-.127.173-.257.294-.322.446a20.1 20.1 0 0 0-.464 1.215c-.173.493-.32.997-.501 1.486-.253.677-.529 1.345-.806 2.043ZM56.414 7.158c-.003-1.866.008-3.665-.007-5.5-.205-.015-.354-.037-.504-.037-3.526-.001-7.052-.001-10.578.003-.404 0-.811-.016-1.194.18-.095.05-.218.047-.329.052-.292.012-.569.04-.847.185-.254.131-.552.154-.829.267a7.483 7.483 0 0 0-1.49.812c-.62.437-1.155.98-1.604 1.613a8.035 8.035 0 0 0-.892 1.611 6.416 6.416 0 0 0-.471 2.095c-.008.131-.066.26-.076.391-.024.28-.06.564-.037.841.032.414.073.834.179 1.23.124.463.219.932.396 1.386.207.53.439 1.044.74 1.508.553.853 1.244 1.561 2.114 2.063.6.345 1.17.751 1.77 1.1.357.21.747.356 1.119.538.347.17.691.348 1.034.527.258.135.51.283.77.416.454.232.907.465 1.368.68.402.188.816.345 1.219.53.413.192.817.407 1.228.605.251.121.51.223.759.348.415.209.816.451 1.238.64.583.26.978.74 1.368 1.233.199.25.358.52.376.863.006.116.055.23.082.345.02.086.059.176.048.259-.126 1.01-.44 1.916-1.318 2.458-.318.195-.648.404-1.044.384a.3.3 0 0 0-.125.015c-.895.356-1.827.183-2.743.201-.978.02-1.958-.025-2.937-.024-1.608.002-3.217.023-4.825.024a96.91 96.91 0 0 1-3.19-.038c-.255-.008-.513-.123-.758-.223-.092-.037-.177-.155-.218-.258-.233-.579.112-1.203.7-1.278.111-.014.224-.006.336-.006 4.128-.003 8.255-.005 12.383-.01.28 0 .563-.047.839-.01.354.045.638-.147.88-.328a.908.908 0 0 0 .36-.714c-.005-.271.056-.537-.187-.777-.262-.257-.514-.489-.832-.682-.56-.341-1.169-.558-1.736-.876-.406-.228-.861-.354-1.286-.548-.388-.177-.763-.39-1.147-.578-.433-.21-.873-.405-1.305-.619-.396-.196-.786-.407-1.178-.614-.329-.174-.656-.354-.988-.522-.37-.187-.75-.349-1.113-.55a31.854 31.854 0 0 1-1.573-.924c-.895-.564-1.719-1.225-2.371-2.099-.358-.48-.646-1.006-.928-1.543a7.12 7.12 0 0 1-.572-1.389c-.118-.428-.345-.841-.311-1.323.014-.198-.075-.403-.113-.605-.024-.13-.058-.262-.06-.393-.01-.448-.023-.896-.003-1.342.012-.262.088-.52.129-.781.023-.147.043-.295.052-.443.017-.281.032-.547.166-.815.133-.265.136-.586.252-.88.317-.797.693-1.552 1.21-2.218a9.786 9.786 0 0 1 1.776-1.778c.469-.36.961-.685 1.506-.908.295-.12.574-.287.87-.4a4.74 4.74 0 0 1 .84-.241c.575-.105 1.153-.255 1.731-.259C48.731.001 52.928.005 57.126 0c.112 0 .225 0 .336.014.235.03.436.223.472.478.03.22.047.445.048.668.003 2.239.002 4.476.002 6.714 0 .134-.005.27-.023.402-.047.334-.225.528-.545.569-.208.027-.42.027-.629.027-3.651 0-7.304-.003-10.956-.005-.39 0-.766.02-1.152.154-.371.129-.51.422-.583.734-.064.274.101.566.318.723.304.22.648.378.98.552.207.109.424.199.637.295.326.149.654.292.978.444.15.07.288.166.439.234.703.318 1.413.623 2.114.95.625.29 1.24.606 1.862.903.51.243 1.019.485 1.535.71.443.192.915.319 1.34.547.895.48 1.797.963 2.521 1.725a29.17 29.17 0 0 1 1.48 1.654c.23.281.384.636.56.964.183.342.381.68.521 1.042.15.388.273.788.385 1.195.338 1.233.223 2.475.177 3.719-.01.244-.095.485-.144.728-.02.102-.05.203-.054.306a1.35 1.35 0 0 1-.166.63c-.136.247-.183.549-.28.822-.212.59-.532 1.11-.87 1.627-.395.604-.837 1.155-1.374 1.612-.394.334-.814.635-1.23.94-.282.204-.568.403-.867.576-.252.146-.524.253-.79.371-.29.13-.583.252-.876.376-.075.033-.153.06-.232.083-.04.011-.09-.008-.124.01-.478.26-1.029.19-1.52.393-.152.061-.33.068-.495.07-.993.02-1.986.038-2.98.04-3.582.005-7.163.002-10.745.002-.155 0-.31.005-.462-.01-.34-.033-.525-.22-.573-.58-.047-.346-.063-.69.267-.908.1-.066.217-.13.33-.143.209-.023.42-.008.63-.008l12.214-.005c.266 0 .532-.009.797-.017.098-.003.21.013.29-.03.35-.192.738-.144 1.097-.236.35-.09.735-.122 1.043-.37a.202.202 0 0 1 .072-.042c.833-.204 1.535-.678 2.246-1.165.794-.544 1.424-1.25 2-2.018a3.84 3.84 0 0 0 .64-1.259c.047-.162.157-.304.203-.467.14-.492.264-.988.392-1.483a.503.503 0 0 0 .024-.132c.001-.79.097-1.598-.03-2.364a7.925 7.925 0 0 0-.54-1.826c-.453-1.048-1.113-1.892-1.879-2.669A6.038 6.038 0 0 0 54.5 17.17c-.375-.2-.726-.453-1.108-.637-.424-.205-.873-.349-1.304-.537-.43-.188-.849-.4-1.274-.598-.45-.208-.902-.406-1.35-.615-.422-.198-.841-.405-1.263-.606-.2-.096-.401-.193-.605-.282-.594-.26-1.207-.48-1.78-.785-.747-.4-1.56-.653-2.249-1.177a2.658 2.658 0 0 1-.876-1.182c-.126-.32-.24-.621-.206-.974.089-.923.412-1.693 1.219-2.147.48-.27.977-.442 1.536-.44 3.512.01 7.024.003 10.536 0 .193-.001.384-.02.638-.032Z" fill="#005292"/><path d="M78.034 1.54h1.533L87.237 20h-1.923l-2.392-5.772h-8.294L72.26 20h-1.95l7.722-18.46Zm4.471 11.258-3.718-9.126-3.77 9.126h7.489ZM89.884 20V1.54h6.266c1.959 0 3.588.416 4.888 1.248a7.66 7.66 0 0 1 2.964 3.328c.658 1.387.988 2.93.988 4.628 0 1.872-.364 3.502-1.092 4.888a7.65 7.65 0 0 1-3.068 3.224C99.513 19.62 97.953 20 96.15 20h-6.266Zm13.286-9.256c0-1.473-.277-2.782-.832-3.926-.537-1.144-1.326-2.037-2.366-2.678-1.04-.659-2.314-.988-3.822-.988h-4.446v15.236h4.446c1.525 0 2.808-.338 3.848-1.014a6.463 6.463 0 0 0 2.366-2.73c.537-1.161.806-2.461.806-3.9Zm22.717-5.746a4.428 4.428 0 0 0-.91-.78 5.781 5.781 0 0 0-1.17-.624 8.342 8.342 0 0 0-1.404-.416 7.447 7.447 0 0 0-1.56-.156c-1.612 0-2.8.312-3.562.936-.746.607-1.118 1.439-1.118 2.496 0 .728.173 1.3.52 1.716.364.416.927.754 1.69 1.014.762.26 1.733.529 2.912.806 1.317.277 2.452.607 3.406.988.953.382 1.69.902 2.21 1.56.52.642.78 1.517.78 2.626 0 .85-.165 1.586-.494 2.21a4.414 4.414 0 0 1-1.378 1.56c-.59.416-1.292.728-2.106.936a11.76 11.76 0 0 1-2.678.286c-.954 0-1.872-.095-2.756-.286a11.954 11.954 0 0 1-2.47-.884 10.243 10.243 0 0 1-2.184-1.508l.91-1.482c.329.347.719.676 1.17.988.468.295.979.563 1.534.806.572.243 1.178.434 1.82.572.658.122 1.334.182 2.028.182 1.473 0 2.617-.268 3.432-.806.832-.537 1.248-1.334 1.248-2.392 0-.762-.208-1.37-.624-1.82-.416-.468-1.04-.85-1.872-1.144-.832-.294-1.855-.58-3.068-.858-1.283-.294-2.366-.624-3.25-.988-.884-.364-1.552-.84-2.002-1.43-.434-.607-.65-1.404-.65-2.392 0-1.144.277-2.106.832-2.886.572-.797 1.352-1.395 2.34-1.794.988-.416 2.123-.624 3.406-.624a9.32 9.32 0 0 1 2.262.26c.71.156 1.36.39 1.95.702a7.98 7.98 0 0 1 1.69 1.17l-.884 1.456ZM130.89 20V1.54h7.644a4.82 4.82 0 0 1 2.184.494c.676.33 1.256.78 1.742 1.352a6.491 6.491 0 0 1 1.144 1.872c.277.676.416 1.37.416 2.08a6.32 6.32 0 0 1-.676 2.86 5.58 5.58 0 0 1-1.846 2.158c-.798.555-1.734.832-2.808.832h-5.98V20h-1.82Zm1.82-8.424h5.902c.728 0 1.36-.2 1.898-.598a3.97 3.97 0 0 0 1.248-1.56 4.932 4.932 0 0 0 .442-2.08c0-.763-.174-1.465-.52-2.106a4.003 4.003 0 0 0-1.378-1.508 3.187 3.187 0 0 0-1.846-.572h-5.746v8.424ZM151.514 1.54h1.534l7.67 18.46h-1.924l-2.392-5.772h-8.294L145.742 20h-1.95l7.722-18.46Zm4.472 11.258-3.718-9.126-3.77 9.126h7.488Zm5.471-2.158c0-1.127.19-2.227.572-3.302a9.721 9.721 0 0 1 1.716-2.964 7.97 7.97 0 0 1 2.756-2.132c1.092-.537 2.331-.806 3.718-.806 1.646 0 3.05.381 4.212 1.144 1.178.745 2.045 1.707 2.6 2.886l-1.43.884c-.399-.815-.902-1.456-1.508-1.924a5.76 5.76 0 0 0-1.95-1.04 6.864 6.864 0 0 0-2.028-.312c-1.11 0-2.089.225-2.938.676a6.454 6.454 0 0 0-2.158 1.768 7.818 7.818 0 0 0-1.3 2.47 8.806 8.806 0 0 0-.442 2.756c0 1.023.173 2.002.52 2.938a8.133 8.133 0 0 0 1.456 2.496 7.487 7.487 0 0 0 2.184 1.716 6.18 6.18 0 0 0 2.756.624c.693 0 1.404-.121 2.132-.364a6.486 6.486 0 0 0 2.028-1.118c.641-.503 1.152-1.153 1.534-1.95l1.508.78a5.848 5.848 0 0 1-1.768 2.34 8.559 8.559 0 0 1-2.678 1.456 8.87 8.87 0 0 1-2.86.494c-1.266 0-2.427-.268-3.484-.806a9.36 9.36 0 0 1-2.756-2.184 10.41 10.41 0 0 1-1.768-3.068 10.054 10.054 0 0 1-.624-3.458Zm31.448 7.748V20h-12.402V1.54h12.168v1.612h-10.348v6.656h9.022v1.534h-9.022v7.046h10.582ZM71.171 34v-8.566h.996v7.675h3.803V34h-4.799Zm11.643 0-1.055-2.719h-3.433l-1.05 2.72H76.27l3.352-8.602h.896L83.845 34h-1.031Zm-1.353-3.603-1.002-2.701-.118-.346a518.999 518.999 0 0 0-.293-.914c-.039.16-.082.32-.129.48a12.504 12.504 0 0 1-.24.78l-1.02 2.7h2.801Zm3.574-4.963h2.425c1.07 0 1.876.16 2.415.48.539.32.808.865.808 1.635 0 .332-.064.63-.193.896a1.67 1.67 0 0 1-.551.65 2.24 2.24 0 0 1-.896.358v.059c.374.058.706.166.996.322.289.156.515.375.68.656.163.282.245.64.245 1.073 0 .527-.123.972-.369 1.336a2.25 2.25 0 0 1-1.031.826c-.445.183-.973.275-1.582.275h-2.947v-8.566Zm.996 3.674h1.64c.746 0 1.262-.123 1.547-.37.29-.246.434-.605.434-1.078 0-.488-.172-.84-.516-1.054-.34-.215-.883-.323-1.629-.323h-1.476v2.825Zm0 .837v3.206h1.781c.762 0 1.3-.149 1.617-.446.317-.3.475-.705.475-1.213 0-.324-.072-.601-.217-.832-.14-.23-.371-.406-.691-.527-.317-.125-.74-.188-1.272-.188h-1.693ZM97.562 34h-4.77v-8.566h4.77v.879h-3.773v2.771h3.556v.867H93.79v3.17h3.773v.88Zm1.898 0v-8.566h.997v7.675h3.802V34H99.46Z" fill="#fff"/></svg>