<svg width="24" height="14" fill="none" xmlns="http://www.w3.org/2000/svg"><path d="M21.28 5.877c.341-.44.612-.795.812-1.062 1.441-1.916 2.066-3.14 1.874-3.674l-.075-.125c-.05-.075-.18-.144-.387-.206-.209-.062-.475-.072-.8-.031l-3.599.025a1.025 1.025 0 0 0-.412.044l-.062.03-.05.038a.553.553 0 0 0-.138.132.845.845 0 0 0-.125.218 20.396 20.396 0 0 1-1.337 2.812c-.308.517-.591.965-.85 1.343-.258.38-.474.659-.65.837-.174.18-.332.323-.474.431-.142.109-.25.155-.325.138a6.222 6.222 0 0 1-.212-.05.825.825 0 0 1-.281-.306 1.374 1.374 0 0 1-.144-.487 5.278 5.278 0 0 1-.044-.507 9.991 9.991 0 0 1 .007-.6c.008-.258.012-.433.012-.524 0-.317.007-.66.019-1.031.012-.37.023-.665.031-.881.008-.217.013-.446.013-.688a2.87 2.87 0 0 0-.044-.568 1.993 1.993 0 0 0-.131-.4.671.671 0 0 0-.257-.3 1.445 1.445 0 0 0-.418-.169c-.442-.1-1.004-.153-1.687-.162C9.996.138 9 .238 8.559.454a1.687 1.687 0 0 0-.475.375c-.15.184-.17.284-.062.3.5.075.854.254 1.062.537l.075.15c.058.109.117.3.175.575.058.275.096.579.113.912a9.708 9.708 0 0 1 0 1.562c-.042.434-.081.77-.119 1.012a2.027 2.027 0 0 1-.169.587c-.075.15-.125.242-.15.275a.22.22 0 0 1-.062.063.938.938 0 0 1-.337.062c-.117 0-.259-.058-.425-.175a2.955 2.955 0 0 1-.519-.48 6.394 6.394 0 0 1-.606-.857 14.84 14.84 0 0 1-.7-1.3l-.2-.362a30.659 30.659 0 0 1-.512-1.018 19.505 19.505 0 0 1-.575-1.294.828.828 0 0 0-.3-.4L4.711.942a.85.85 0 0 0-.2-.106 1.347 1.347 0 0 0-.287-.081L.8.779c-.35 0-.587.08-.712.237l-.05.075a.403.403 0 0 0-.038.2c0 .092.025.204.075.337a41.24 41.24 0 0 0 1.63 3.4c.588 1.09 1.098 1.97 1.532 2.636.433.667.874 1.296 1.324 1.887.45.592.748.97.894 1.137a7.8 7.8 0 0 0 .343.375l.312.3c.2.2.494.44.881.719.388.279.817.553 1.288.824.47.27 1.018.491 1.643.662.624.171 1.232.24 1.824.207h1.437c.292-.025.512-.117.662-.275l.05-.063a.847.847 0 0 0 .094-.23c.029-.105.044-.22.044-.344a4.109 4.109 0 0 1 .081-.969c.062-.287.133-.503.212-.65a1.595 1.595 0 0 1 .482-.55c.041-.02.075-.034.1-.043.2-.067.435-.002.706.194.27.196.524.437.762.724.237.288.522.61.856.969.333.358.625.624.875.8l.25.15c.166.1.382.191.65.275.266.083.5.104.699.062l3.199-.05c.316 0 .562-.052.737-.157.175-.103.28-.218.313-.343a.97.97 0 0 0 .006-.425 1.552 1.552 0 0 0-.087-.33 1.715 1.715 0 0 0-.082-.157c-.417-.75-1.212-1.67-2.387-2.761l-.025-.025-.012-.013-.013-.012h-.012c-.534-.508-.87-.85-1.012-1.025-.258-.333-.317-.67-.175-1.012.1-.259.474-.804 1.124-1.638Z" fill="#87888A"/></svg>